<svg xmlns="http://www.w3.org/2000/svg" xmlns:xlink="http://www.w3.org/1999/xlink" width="1600" zoomAndPan="magnify" viewBox="0 0 1200 675.000002" height="900" preserveAspectRatio="xMidYMid meet" version="1.0"><defs><g/></defs><g fill="#f2f2f2" fill-opacity="1"><g transform="translate(358.720326, 385.578786)"><g><path d="M 41.171875 -42.703125 C 41.171875 -43.816406 40.773438 -44.78125 39.984375 -45.59375 C 39.191406 -46.414062 38.257812 -46.847656 37.1875 -46.890625 L 23.90625 -46.890625 L 23.90625 -5.03125 C 23.945312 -3.820312 24.398438 -2.796875 25.265625 -1.953125 C 26.128906 -1.117188 27.164062 -0.703125 28.375 -0.703125 L 29.28125 -0.703125 L 29.28125 0 L 13.984375 0 L 13.984375 -0.703125 L 14.890625 -0.703125 C 16.097656 -0.703125 17.132812 -1.117188 18 -1.953125 C 18.863281 -2.796875 19.316406 -3.800781 19.359375 -4.96875 L 19.359375 -46.890625 L 6.078125 -46.890625 C 4.960938 -46.847656 4.019531 -46.414062 3.25 -45.59375 C 2.476562 -44.78125 2.09375 -43.816406 2.09375 -42.703125 L 2.09375 -41.515625 L 1.390625 -41.4375 L 1.390625 -50.25 C 2.097656 -49.96875 3.3125 -49.6875 5.03125 -49.40625 C 6.757812 -49.132812 8.34375 -49 9.78125 -49 L 33.40625 -49 C 35.6875 -49 37.582031 -49.171875 39.09375 -49.515625 C 40.613281 -49.867188 41.535156 -50.113281 41.859375 -50.25 L 41.859375 -41.4375 L 41.171875 -41.515625 Z M 41.171875 -42.703125 "/></g></g></g><g fill="#f2f2f2" fill-opacity="1"><g transform="translate(408.204646, 385.578786)"><g><path d="M 69.390625 -48.21875 L 68.828125 -48.21875 C 67.109375 -48.21875 65.597656 -47.59375 64.296875 -46.34375 C 63.546875 -45.6875 63.007812 -44.867188 62.6875 -43.890625 L 51.078125 -6.921875 C 50.148438 -3.984375 49.640625 -1.394531 49.546875 0.84375 L 48.921875 0.84375 L 34.65625 -39.140625 L 24.03125 -6.921875 C 23.144531 -4.035156 22.65625 -1.445312 22.5625 0.84375 L 21.9375 0.84375 L 6.078125 -43.96875 C 5.515625 -45.363281 4.648438 -46.421875 3.484375 -47.140625 C 2.316406 -47.859375 1.128906 -48.21875 -0.078125 -48.21875 L -0.640625 -48.21875 L -0.640625 -48.921875 L 14.875 -48.921875 L 14.875 -48.21875 L 14.25 -48.21875 C 13.269531 -48.21875 12.535156 -47.90625 12.046875 -47.28125 C 11.554688 -46.65625 11.3125 -46.0625 11.3125 -45.5 C 11.3125 -44.9375 11.382812 -44.425781 11.53125 -43.96875 L 22.140625 -9.921875 L 35.140625 -50.046875 L 35.78125 -49.96875 L 49.546875 -11.328125 L 58.90625 -44.03125 C 59.050781 -44.539062 59.125 -45.0625 59.125 -45.59375 C 59.125 -46.132812 58.890625 -46.707031 58.421875 -47.3125 C 57.953125 -47.914062 57.226562 -48.21875 56.25 -48.21875 L 55.625 -48.21875 L 55.625 -48.921875 L 69.390625 -48.921875 Z M 69.390625 -48.21875 "/></g></g></g><g fill="#f2f2f2" fill-opacity="1"><g transform="translate(483.129887, 385.578786)"><g><path d="M 5.109375 -0.703125 C 6.316406 -0.703125 7.347656 -1.128906 8.203125 -1.984375 C 9.066406 -2.847656 9.523438 -3.890625 9.578125 -5.109375 L 9.578125 -43.890625 C 9.523438 -45.097656 9.066406 -46.117188 8.203125 -46.953125 C 7.347656 -47.796875 6.316406 -48.21875 5.109375 -48.21875 L 4.1875 -48.21875 L 4.1875 -48.921875 L 19.5 -48.921875 L 19.5 -48.21875 L 18.59375 -48.21875 C 17.382812 -48.21875 16.347656 -47.796875 15.484375 -46.953125 C 14.617188 -46.117188 14.164062 -45.097656 14.125 -43.890625 L 14.125 -5.109375 C 14.125 -3.890625 14.566406 -2.847656 15.453125 -1.984375 C 16.335938 -1.128906 17.382812 -0.703125 18.59375 -0.703125 L 19.5 -0.703125 L 19.5 0 L 4.1875 0 L 4.1875 -0.703125 Z M 5.109375 -0.703125 "/></g></g></g><g fill="#f2f2f2" fill-opacity="1"><g transform="translate(513.044266, 385.578786)"><g><path d="M 54.375 -48.21875 C 53.207031 -48.21875 52.203125 -47.8125 51.359375 -47 C 50.523438 -46.1875 50.085938 -45.195312 50.046875 -44.03125 L 50.046875 -7.96875 C 50.046875 -5.257812 50.207031 -2.695312 50.53125 -0.28125 L 50.671875 0.984375 L 50.046875 0.984375 L 11.953125 -39.703125 L 11.953125 -4.890625 C 11.992188 -3.265625 12.71875 -2.054688 14.125 -1.265625 C 14.769531 -0.890625 15.46875 -0.703125 16.21875 -0.703125 L 17.546875 -0.703125 L 17.546875 0 L 3.140625 0 L 3.140625 -0.703125 L 4.46875 -0.703125 C 5.632812 -0.703125 6.632812 -1.109375 7.46875 -1.921875 C 8.3125 -2.734375 8.734375 -3.75 8.734375 -4.96875 L 8.734375 -41.234375 C 8.734375 -44.078125 8.570312 -46.617188 8.25 -48.859375 L 8.109375 -49.96875 L 8.8125 -49.96875 L 46.890625 -9.296875 L 46.890625 -43.96875 C 46.847656 -45.175781 46.40625 -46.1875 45.5625 -47 C 44.726562 -47.8125 43.726562 -48.21875 42.5625 -48.21875 L 41.234375 -48.21875 L 41.234375 -48.921875 L 55.640625 -48.921875 L 55.640625 -48.21875 Z M 54.375 -48.21875 "/></g></g></g><g fill="#f2f2f2" fill-opacity="1"><g transform="translate(578.114642, 385.578786)"><g/></g></g><g fill="#f2f2f2" fill-opacity="1"><g transform="translate(601.878477, 385.578786)"><g><path d="M 36.828125 -35.4375 C 36.828125 -33.382812 36.410156 -31.472656 35.578125 -29.703125 C 34.035156 -26.390625 31.332031 -24.082031 27.46875 -22.78125 C 26.113281 -22.3125 24.945312 -22.078125 23.96875 -22.078125 C 21.082031 -22.078125 18.59375 -22.613281 16.5 -23.6875 L 16.5 -24.390625 C 19.894531 -23.648438 23.035156 -24.023438 25.921875 -25.515625 C 28.492188 -26.816406 30.242188 -28.957031 31.171875 -31.9375 C 31.453125 -32.875 31.59375 -33.757812 31.59375 -34.59375 C 31.59375 -35.4375 31.59375 -35.953125 31.59375 -36.140625 C 31.5 -39.398438 30.632812 -41.992188 29 -43.921875 C 27.375 -45.859375 25.09375 -46.828125 22.15625 -46.828125 L 14.125 -46.828125 L 14.125 -5.109375 C 14.164062 -3.890625 14.617188 -2.847656 15.484375 -1.984375 C 16.347656 -1.128906 17.382812 -0.703125 18.59375 -0.703125 L 19.5 -0.703125 L 19.5 0 L 4.1875 0 L 4.1875 -0.703125 L 5.109375 -0.703125 C 6.316406 -0.703125 7.347656 -1.128906 8.203125 -1.984375 C 9.066406 -2.847656 9.523438 -3.890625 9.578125 -5.109375 L 9.578125 -44.171875 C 9.429688 -45.335938 8.9375 -46.300781 8.09375 -47.0625 C 7.257812 -47.832031 6.265625 -48.21875 5.109375 -48.21875 L 4.265625 -48.21875 L 4.1875 -48.921875 L 22.4375 -48.921875 C 26.90625 -48.921875 30.421875 -47.71875 32.984375 -45.3125 C 35.546875 -42.914062 36.828125 -39.625 36.828125 -35.4375 Z M 36.828125 -35.4375 "/></g></g></g><g fill="#f2f2f2" fill-opacity="1"><g transform="translate(648.14772, 385.578786)"><g><path d="M 18.59375 -46.75 L 14.125 -46.75 L 14.125 -5.109375 C 14.125 -3.890625 14.550781 -2.847656 15.40625 -1.984375 C 16.269531 -1.128906 17.332031 -0.703125 18.59375 -0.703125 L 19.421875 -0.703125 L 19.5 0 L 4.1875 0 L 4.1875 -0.703125 L 5.109375 -0.703125 C 6.316406 -0.703125 7.347656 -1.117188 8.203125 -1.953125 C 9.066406 -2.796875 9.523438 -3.820312 9.578125 -5.03125 L 9.578125 -43.828125 C 9.523438 -45.035156 9.066406 -46.066406 8.203125 -46.921875 C 7.347656 -47.785156 6.316406 -48.21875 5.109375 -48.21875 L 4.1875 -48.21875 L 4.1875 -48.921875 L 23.0625 -48.921875 C 27.300781 -48.921875 30.628906 -47.742188 33.046875 -45.390625 C 35.472656 -43.035156 36.6875 -39.984375 36.6875 -36.234375 C 36.6875 -32.484375 35.535156 -29.242188 33.234375 -26.515625 C 30.929688 -23.796875 28.125 -22.4375 24.8125 -22.4375 C 25.507812 -22.113281 26.332031 -21.472656 27.28125 -20.515625 C 28.238281 -19.554688 29.09375 -18.566406 29.84375 -17.546875 C 33.851562 -11.816406 36.460938 -8.285156 37.671875 -6.953125 C 38.878906 -5.628906 39.738281 -4.722656 40.25 -4.234375 C 40.769531 -3.742188 41.332031 -3.265625 41.9375 -2.796875 C 42.539062 -2.328125 43.144531 -1.953125 43.75 -1.671875 C 45.101562 -1.023438 46.546875 -0.703125 48.078125 -0.703125 L 48.078125 0 L 44.234375 0 C 42.234375 0 40.367188 -0.359375 38.640625 -1.078125 C 36.921875 -1.804688 35.628906 -2.550781 34.765625 -3.3125 C 33.910156 -4.082031 33.164062 -4.828125 32.53125 -5.546875 C 31.90625 -6.273438 30.171875 -8.6875 27.328125 -12.78125 C 24.484375 -16.882812 22.828125 -19.226562 22.359375 -19.8125 C 21.898438 -20.394531 21.410156 -20.96875 20.890625 -21.53125 C 19.398438 -23.113281 17.910156 -23.90625 16.421875 -23.90625 L 16.421875 -24.59375 C 16.796875 -24.550781 17.285156 -24.53125 17.890625 -24.53125 C 18.492188 -24.53125 19.238281 -24.550781 20.125 -24.59375 C 25.90625 -24.738281 29.539062 -27.164062 31.03125 -31.875 C 31.3125 -32.800781 31.453125 -33.671875 31.453125 -34.484375 C 31.453125 -35.304688 31.453125 -35.832031 31.453125 -36.0625 C 31.359375 -39.1875 30.539062 -41.703125 29 -43.609375 C 27.46875 -45.523438 25.394531 -46.550781 22.78125 -46.6875 C 21.664062 -46.726562 20.269531 -46.75 18.59375 -46.75 Z M 18.59375 -46.75 "/></g></g></g><g fill="#f2f2f2" fill-opacity="1"><g transform="translate(699.658899, 385.578786)"><g><path d="M 5.109375 -0.703125 C 6.316406 -0.703125 7.347656 -1.128906 8.203125 -1.984375 C 9.066406 -2.847656 9.523438 -3.890625 9.578125 -5.109375 L 9.578125 -43.890625 C 9.523438 -45.097656 9.066406 -46.117188 8.203125 -46.953125 C 7.347656 -47.796875 6.316406 -48.21875 5.109375 -48.21875 L 4.1875 -48.21875 L 4.1875 -48.921875 L 19.5 -48.921875 L 19.5 -48.21875 L 18.59375 -48.21875 C 17.382812 -48.21875 16.347656 -47.796875 15.484375 -46.953125 C 14.617188 -46.117188 14.164062 -45.097656 14.125 -43.890625 L 14.125 -5.109375 C 14.125 -3.890625 14.566406 -2.847656 15.453125 -1.984375 C 16.335938 -1.128906 17.382812 -0.703125 18.59375 -0.703125 L 19.5 -0.703125 L 19.5 0 L 4.1875 0 L 4.1875 -0.703125 Z M 5.109375 -0.703125 "/></g></g></g><g fill="#f2f2f2" fill-opacity="1"><g transform="translate(729.573289, 385.578786)"><g><path d="M 62.90625 -0.703125 L 64.015625 -0.703125 L 64.015625 0 L 48.859375 0 L 48.859375 -0.625 L 49.90625 -0.625 C 50.695312 -0.625 51.367188 -0.9375 51.921875 -1.5625 C 52.484375 -2.195312 52.71875 -2.890625 52.625 -3.640625 L 49.484375 -38.796875 L 34.8125 -6.15625 C 33.5 -3.3125 32.703125 -0.929688 32.421875 0.984375 L 31.734375 0.984375 L 13.84375 -37.8125 L 10.828125 -3.640625 C 10.734375 -2.890625 10.96875 -2.195312 11.53125 -1.5625 C 12.09375 -0.9375 12.742188 -0.625 13.484375 -0.625 L 14.609375 -0.625 L 14.609375 0 L 1.046875 0 L 1.046875 -0.703125 L 2.171875 -0.703125 C 3.472656 -0.703125 4.597656 -1.097656 5.546875 -1.890625 C 6.503906 -2.679688 7.078125 -3.753906 7.265625 -5.109375 L 12.515625 -49.90625 L 13.203125 -49.90625 L 32.703125 -7.765625 L 51.78125 -49.90625 L 52.421875 -49.90625 L 57.796875 -5.109375 C 58.035156 -3.242188 58.96875 -1.9375 60.59375 -1.1875 C 61.289062 -0.863281 62.0625 -0.703125 62.90625 -0.703125 Z M 62.90625 -0.703125 "/></g></g></g><g fill="#f2f2f2" fill-opacity="1"><g transform="translate(800.933998, 385.578786)"><g><path d="M 5.109375 -0.703125 C 6.316406 -0.703125 7.347656 -1.128906 8.203125 -1.984375 C 9.066406 -2.847656 9.523438 -3.890625 9.578125 -5.109375 L 9.578125 -44.234375 C 9.429688 -45.359375 8.9375 -46.300781 8.09375 -47.0625 C 7.257812 -47.832031 6.265625 -48.21875 5.109375 -48.21875 L 4.265625 -48.21875 L 4.1875 -48.921875 L 24.671875 -48.921875 C 26.117188 -48.921875 27.691406 -49.0625 29.390625 -49.34375 C 31.085938 -49.625 32.285156 -49.90625 32.984375 -50.1875 L 32.984375 -41.375 L 32.296875 -41.375 L 32.296875 -42.640625 C 32.296875 -43.753906 31.910156 -44.707031 31.140625 -45.5 C 30.367188 -46.289062 29.445312 -46.707031 28.375 -46.75 L 14.125 -46.75 L 14.125 -25.15625 L 25.921875 -25.15625 C 26.859375 -25.207031 27.648438 -25.554688 28.296875 -26.203125 C 28.953125 -26.859375 29.28125 -27.675781 29.28125 -28.65625 L 29.28125 -29.640625 L 29.984375 -29.640625 L 29.984375 -18.59375 L 29.28125 -18.59375 L 29.28125 -19.640625 C 29.28125 -20.566406 28.960938 -21.359375 28.328125 -22.015625 C 27.703125 -22.671875 26.925781 -23.019531 26 -23.0625 L 14.125 -23.0625 L 14.125 -2.171875 L 24.109375 -2.171875 C 27.554688 -2.171875 30.1875 -2.9375 32 -4.46875 C 33.820312 -6.007812 35.335938 -8.296875 36.546875 -11.328125 L 37.25 -11.328125 L 33.203125 0 L 4.1875 0 L 4.1875 -0.703125 Z M 5.109375 -0.703125 "/></g></g></g><g fill="#f2f2f2" fill-opacity="1"><g transform="translate(566.481266, 278.05148)"><g><path d="M 0.671875 -0.484375 L 35.125 -68.171875 L 38.09375 -66.453125 L 3.625 1.34375 Z M 0.671875 -0.484375 "/></g></g></g><g fill="#f2f2f2" fill-opacity="1"><g transform="translate(605.238109, 278.05148)"><g><path d="M 0.671875 -0.484375 L 35.125 -68.171875 L 38.09375 -66.453125 L 3.625 1.34375 Z M 0.671875 -0.484375 "/></g></g></g></svg>
